<!-- icon666.com - MILLIONS OF FREE VECTOR ICONS --><svg xmlns="http://www.w3.org/2000/svg" id="Layer_1_copy" data-name="Layer 1 copy" viewBox="0 0 512 512"><path d="M8,184C8,310.172,70.706,418.391,160,464.385V488a296,296,0,0,0,192,0V464.385C441.294,418.391,504,310.172,504,184Z" style="fill:#f4dfcb"></path><path d="M256,456c67.164,0,125.114-29.095,152-71.137V384c-8.92-9.192-61.553-97.729-152-96-85.551,1.635-142.495,86.2-152,96v.863C130.886,426.905,188.836,456,256,456Z" style="fill:#ffb656"></path><path d="M8,184C8,310.172,70.706,418.391,160,464.385V488a296.275,296.275,0,0,0,56,13.28V464c-104-96-64-280-64-280Z" style="fill:#fcfcfc;opacity:0.2"></path><path d="M504,184c0,126.172-62.706,234.391-152,280.385V488a296.275,296.275,0,0,1-56,13.28V464c104-96,64-280,64-280Z" style="fill:#f4c250;opacity:0.30000000000000004"></path><ellipse cx="256" cy="184" rx="248" ry="56" style="fill:#f2cfb1"></ellipse><path d="M512,32,323.015,32a9.963,9.963,0,0,1-8.24-4.349C306.833,15.986,290.66,8,272,8c-26.51,0-48,16.118-48,36s21.49,36,48,36c18.66,0,34.833-7.986,42.775-19.65A9.963,9.963,0,0,1,323.016,56H512" style="fill:#fd7c26"></path><path d="M225.305,52.328C230.318,68.193,249.314,80,272,80c18.66,0,34.833-7.986,42.775-19.65A9.963,9.963,0,0,1,323.016,56H512V48H304S282.337,76.87,225.305,52.328Z" style="fill:#a34f16;opacity:0.30000000000000004"></path><path d="M152,469.206v24.508l5.405,1.853a304,304,0,0,0,197.189,0L360,493.714V469.206c44.014-23.841,81.456-62.151,108.488-111.078C496.954,306.606,512,246.394,512,184c0-19.635-26.537-35.583-78.875-47.4-44.872-10.132-103.637-15.952-166.461-16.545,1.5-7.252,3.276-11.2,4.341-13.069L257.1,99.073c-2.932,5.154-5.179,12.219-6.708,20.942-64.722.321-125.44,6.18-171.513,16.583C26.537,148.417,0,164.365,0,184c0,62.394,15.046,122.606,43.512,174.128C70.544,407.055,107.986,445.365,152,469.206ZM454.483,350.391c-26.378,47.742-63.082,84.7-106.146,106.883L344,459.507v22.72a288.008,288.008,0,0,1-176,0v-22.72l-4.337-2.233C120.6,435.092,83.895,398.132,57.517,350.391c-23.386-42.328-37.269-90.868-40.679-141.648Q36.491,221.8,78.875,231.4c45.505,10.275,105.3,16.116,169.125,16.567V272h16V247.968c63.826-.451,123.62-6.292,169.125-16.567q42.341-9.561,62.037-22.658C491.752,259.522,477.869,308.063,454.483,350.391ZM429.6,152.206C482.016,164.041,496,177.76,496,184s-13.984,19.959-66.4,31.794c-44.4,10.025-102.939,15.725-165.6,16.173V152c0-6.039.208-11.325.552-15.963C327.005,136.514,385.336,142.21,429.6,152.206Zm-347.2,0c44.518-10.052,103.263-15.758,166.121-16.178q-.511,7.486-.52,15.972v79.968c-62.662-.448-121.205-6.149-165.6-16.173C29.984,203.959,16,190.24,16,184S29.984,164.041,82.4,152.206Z"></path><path d="M407.2,369.942c-9.5-12.65-26.108-34.133-50.122-53.165C325.432,291.7,291.355,279.318,255.847,280c-76.614,1.464-131.044,65.9-150.868,90.31A87.443,87.443,0,0,1,96,332H80c0,35.726,18.629,69.151,52.455,94.118C165.552,450.546,209.428,464,256,464s90.448-13.454,123.545-37.882C413.371,401.151,432,367.726,432,332H416A87.373,87.373,0,0,1,407.2,369.942ZM256,448c-61.915,0-115.725-25.63-142.314-63.023.6-.739,1.257-1.547,1.979-2.44C132.716,361.471,184.6,297.366,256.153,296c31.7-.6,62.327,10.6,90.988,33.318,23.738,18.813,40.037,40.578,48.793,52.271.917,1.224,1.726,2.3,2.464,3.274C371.838,422.318,317.979,448,256,448Z"></path><rect x="332" y="335.716" width="16" height="56.569" transform="translate(-157.803 347.029) rotate(-45)"></rect><path d="M272,88c20.741,0,39.666-8.869,49.389-23.148A1.961,1.961,0,0,1,323.016,64H512V48H323.016a17.947,17.947,0,0,0-14.853,7.846C301.481,65.66,287.286,72,272,72c-21.683,0-40-12.822-40-28s18.317-28,40-28c15.287,0,29.481,6.34,36.162,16.152A17.953,17.953,0,0,0,323.015,40L512,40V24L323.015,24a1.964,1.964,0,0,1-1.628-.851C311.666,8.869,292.741,0,272,0c-30.879,0-56,19.738-56,44S241.121,88,272,88Z"></path></svg>